<?xml version="1.0" encoding="utf-8"?>
<!-- Generator: Adobe Illustrator 27.2.0, SVG Export Plug-In . SVG Version: 6.00 Build 0)  -->
<svg version="1.1" xmlns="http://www.w3.org/2000/svg" xmlns:xlink="http://www.w3.org/1999/xlink" x="0px" y="0px"
	 viewBox="0 0 2095.57 416.76" style="enable-background:new 0 0 2095.57 416.76;" xml:space="preserve">
<style type="text/css">
	.st0{fill:url(#SVGID_1_);}
	.st1{fill:url(#SVGID_00000078758718880437040130000015876609934947008693_);}
	.st2{fill:url(#SVGID_00000061459457396771888570000011956576590836551562_);}
	.st3{fill:url(#SVGID_00000183243296699272359020000000159677427057725862_);}
	.st4{fill:url(#SVGID_00000105405090726893306620000013870755170716916649_);}
	.st5{fill:url(#SVGID_00000098192087388762706480000011407233625116544695_);}
	.st6{fill:url(#SVGID_00000013185246582703344720000004541279187834747066_);}
	.st7{fill:url(#SVGID_00000121259915724411754770000007164256084389219500_);}
	.st8{fill:url(#SVGID_00000156572945018258847420000012903667370912824725_);}
	.st9{fill:url(#SVGID_00000170257243280766614290000016945202978175745157_);}
	.st10{fill:url(#SVGID_00000002364325926308694160000011853530614438712449_);}
	.st11{fill:url(#SVGID_00000012442530933606778280000007898406799636001932_);}
	.st12{fill:url(#SVGID_00000142133698651933754690000015808569492605934246_);}
	.st13{fill:url(#SVGID_00000101096280598766565170000014202780125056924344_);}
	.st14{fill:url(#SVGID_00000142877091612947754510000010752283248080825250_);}
	.st15{fill:url(#SVGID_00000108292799745181933080000011479728897472718752_);}
	.st16{fill:url(#SVGID_00000021800440606675823870000015825339671349142955_);}
	.st17{fill:url(#SVGID_00000182505806356745745390000004327683217011452803_);}
	.st18{fill:url(#SVGID_00000145016986937269550130000012420496227496812425_);}
	.st19{fill:url(#SVGID_00000182488660999479689090000014469383253970411171_);}
	.st20{fill:url(#SVGID_00000107549749998929342390000002314335150184608919_);}
	.st21{fill:url(#SVGID_00000078003763112841307240000016173150028432299690_);}
	.st22{fill:url(#SVGID_00000176734289426545408650000018064138930736463766_);}
	.st23{fill:url(#SVGID_00000051352633000246303050000015990498200254463145_);}
	.st24{fill:url(#SVGID_00000081608785581442625060000008114810861322174601_);}
	.st25{fill:url(#SVGID_00000005985873654809421700000017512788382135568564_);}
</style>
<g id="背景">
</g>
<g id="ロゴ">
	<g>
		<g>
			<g>
				<g>
					<linearGradient id="SVGID_1_" gradientUnits="userSpaceOnUse" x1="608.5872" y1="-863.5582" x2="608.5872" y2="451.7544">
						<stop  offset="5.931120e-03" style="stop-color:#AA8546"/>
						<stop  offset="0.501" style="stop-color:#FFE893"/>
						<stop  offset="0.6149" style="stop-color:#F0D57E"/>
						<stop  offset="0.8434" style="stop-color:#C8A64F"/>
						<stop  offset="0.999" style="stop-color:#AA8534"/>
					</linearGradient>
					<path class="st0" d="M508.89,70.5h75.44v174.85h47.93c0,0,0-116.27,0-174.85h75.74l0.3-24.26H516.28L508.89,70.5z"/>
					
						<linearGradient id="SVGID_00000109749712020827710840000000689618329924536236_" gradientUnits="userSpaceOnUse" x1="819.8372" y1="-863.5582" x2="819.8372" y2="451.7544">
						<stop  offset="5.931120e-03" style="stop-color:#AA8546"/>
						<stop  offset="0.501" style="stop-color:#FFE893"/>
						<stop  offset="0.6149" style="stop-color:#F0D57E"/>
						<stop  offset="0.8434" style="stop-color:#C8A64F"/>
						<stop  offset="0.999" style="stop-color:#AA8534"/>
					</linearGradient>
					<path style="fill:url(#SVGID_00000109749712020827710840000000689618329924536236_);" d="M875.46,102.45
						c0-41.72-44.08-56.21-78.4-56.21h-65.09v199.11h47.63V71.09h6.51c18.93,0,44.08,7.4,44.08,34.91
						c0,24.26-17.16,39.35-38.16,39.35l-8.58,12.72c4.73,0.89,9.47,1.18,14.49,1.18c2.96,4.73,35.8,60.35,53.85,86.09h55.92
						c-21.89-29.58-45.56-59.76-69.82-92.31C859.19,145.05,875.46,129.37,875.46,102.45z"/>
					
						<linearGradient id="SVGID_00000013893102410593941460000008179297201961629324_" gradientUnits="userSpaceOnUse" x1="1008.8985" y1="-863.5582" x2="1008.8985" y2="451.7544">
						<stop  offset="5.931120e-03" style="stop-color:#AA8546"/>
						<stop  offset="0.501" style="stop-color:#FFE893"/>
						<stop  offset="0.6149" style="stop-color:#F0D57E"/>
						<stop  offset="0.8434" style="stop-color:#C8A64F"/>
						<stop  offset="0.999" style="stop-color:#AA8534"/>
					</linearGradient>
					<path style="fill:url(#SVGID_00000013893102410593941460000008179297201961629324_);" d="M1015.7,221.08l-34.02-0.3v-63.9
						c4.73,0,9.76,0,14.49,0c17.75,0,35.8,0.59,53.55,1.48l0.89-28.4c-19.82,2.07-39.94,2.37-59.76,2.37h-8.87V70.5h26.63
						c20.12,0,40.53,0.89,60.65,3.55l-13.02-27.81H934.35v199.11h137.27l11.83-28.11C1060.67,220.19,1038.19,221.38,1015.7,221.08z"
						/>
					
						<linearGradient id="SVGID_00000180359094780115716000000015518569268349303728_" gradientUnits="userSpaceOnUse" x1="1401.2246" y1="-863.5582" x2="1401.2246" y2="451.7544">
						<stop  offset="5.931120e-03" style="stop-color:#AA8546"/>
						<stop  offset="0.501" style="stop-color:#FFE893"/>
						<stop  offset="0.6149" style="stop-color:#F0D57E"/>
						<stop  offset="0.8434" style="stop-color:#C8A64F"/>
						<stop  offset="0.999" style="stop-color:#AA8534"/>
					</linearGradient>
					<path style="fill:url(#SVGID_00000180359094780115716000000015518569268349303728_);" d="M1379.33,88.54
						c0-13.31,10.65-20.12,21.3-20.12c19.82,0,35.5,12.72,45.27,28.7l18.05-34.61c-16.57-13.02-42.01-19.23-63.31-19.23
						c-33.14,0-63.9,21.3-63.9,58.28c0,66.57,92.9,61.24,92.9,96.15c0,15.09-9.76,25.44-25.44,25.44
						c-18.34,0-42.31-13.61-60.06-35.21l-15.98,36.1c22.19,16.86,43.2,24.85,71.01,24.85c40.83,0,75.15-22.78,75.15-61.83
						C1474.3,119.61,1379.33,128.48,1379.33,88.54z"/>
					
						<linearGradient id="SVGID_00000032615488605366767910000005245413916207990185_" gradientUnits="userSpaceOnUse" x1="1598.714" y1="-863.5582" x2="1598.714" y2="451.7544">
						<stop  offset="5.931120e-03" style="stop-color:#AA8546"/>
						<stop  offset="0.501" style="stop-color:#FFE893"/>
						<stop  offset="0.6149" style="stop-color:#F0D57E"/>
						<stop  offset="0.8434" style="stop-color:#C8A64F"/>
						<stop  offset="0.999" style="stop-color:#AA8534"/>
					</linearGradient>
					<path style="fill:url(#SVGID_00000032615488605366767910000005245413916207990185_);" d="M1648.86,167.83
						c0,31.95-23.96,50.89-54.44,50.89c-30.17,0-44.97-21.89-44.97-50.59V46.24h-48.52v121.3c0,52.37,37.87,81.36,88.16,81.36
						c24.26,0,45.27-8.28,61.54-26.63c2.07,7.69,5.02,23.08,5.02,23.08h40.83V46.24h-47.63V167.83z"/>
					
						<linearGradient id="SVGID_00000028315906934724446490000013444736770968430223_" gradientUnits="userSpaceOnUse" x1="1825.7954" y1="-863.5582" x2="1825.7954" y2="451.7544">
						<stop  offset="5.931120e-03" style="stop-color:#AA8546"/>
						<stop  offset="0.501" style="stop-color:#FFE893"/>
						<stop  offset="0.6149" style="stop-color:#F0D57E"/>
						<stop  offset="0.8434" style="stop-color:#C8A64F"/>
						<stop  offset="0.999" style="stop-color:#AA8534"/>
					</linearGradient>
					<path style="fill:url(#SVGID_00000028315906934724446490000013444736770968430223_);" d="M1881.42,102.45
						c0-41.72-44.08-56.21-78.4-56.21h-65.09v199.11h47.63V71.09h6.51c18.93,0,44.08,7.4,44.08,34.91
						c0,24.26-17.16,39.35-38.17,39.35l-8.58,12.72c4.74,0.89,9.47,1.18,14.5,1.18c2.96,4.73,35.8,60.35,53.84,86.09h55.92
						c-21.89-29.58-45.56-59.76-69.82-92.31C1865.14,145.05,1881.42,129.37,1881.42,102.45z"/>
					
						<linearGradient id="SVGID_00000076596351812942273270000016750947128368457149_" gradientUnits="userSpaceOnUse" x1="2014.8594" y1="-863.5582" x2="2014.8594" y2="451.7544">
						<stop  offset="5.931120e-03" style="stop-color:#AA8546"/>
						<stop  offset="0.501" style="stop-color:#FFE893"/>
						<stop  offset="0.6149" style="stop-color:#F0D57E"/>
						<stop  offset="0.8434" style="stop-color:#C8A64F"/>
						<stop  offset="0.999" style="stop-color:#AA8534"/>
					</linearGradient>
					<path style="fill:url(#SVGID_00000076596351812942273270000016750947128368457149_);" d="M2021.66,221.08l-34.02-0.3v-63.9
						c4.74,0,9.76,0,14.5,0c17.75,0,35.8,0.59,53.55,1.48l0.89-28.4c-19.82,2.07-39.94,2.37-59.76,2.37h-8.87V70.5h26.63
						c20.11,0,40.53,0.89,60.65,3.55l-13.02-27.81H1940.3v199.11h137.27l11.84-28.11C2066.63,220.19,2044.15,221.38,2021.66,221.08z
						"/>
					
						<linearGradient id="SVGID_00000006665953006800856070000006914296109165780666_" gradientUnits="userSpaceOnUse" x1="1205.7988" y1="-863.5582" x2="1205.7988" y2="451.7544">
						<stop  offset="5.931120e-03" style="stop-color:#AA8546"/>
						<stop  offset="0.501" style="stop-color:#FFE893"/>
						<stop  offset="0.6149" style="stop-color:#F0D57E"/>
						<stop  offset="0.8434" style="stop-color:#C8A64F"/>
						<stop  offset="0.999" style="stop-color:#AA8534"/>
					</linearGradient>
					<path style="fill:url(#SVGID_00000006665953006800856070000006914296109165780666_);" d="M1300.12,140.03
						c-13.47,0-26.35,0.25-38.73,1.05c-2.11-4.3-4.22-8.59-6.33-12.9c-13.61-27.22-28.4-53.85-39.35-82.25h-18.64l-86.04,173.63
						c-0.02,0.02-0.03,0.04-0.05,0.07l0.01,0.01l-12.73,25.69h32.54l0.17-0.35c13.31-25.4,38.22-54.84,91.27-79.06
						c15.17,32.39,32.06,68.66,36.67,79.41h54.44c-16.23-31.97-32.06-63.76-47.82-95.82
						C1276.23,146.16,1287.73,142.98,1300.12,140.03z M1168.31,166.56l27.29-57.31c0,0,7.94,16.82,18.24,38.77
						C1197.96,152.02,1182.86,157.91,1168.31,166.56z"/>
				</g>
				<g>
					
						<linearGradient id="SVGID_00000100342634545708753760000015752872828351052176_" gradientUnits="userSpaceOnUse" x1="546.7756" y1="-863.5582" x2="546.7756" y2="451.7544">
						<stop  offset="5.931120e-03" style="stop-color:#AA8546"/>
						<stop  offset="0.501" style="stop-color:#FFE893"/>
						<stop  offset="0.6149" style="stop-color:#F0D57E"/>
						<stop  offset="0.8434" style="stop-color:#C8A64F"/>
						<stop  offset="0.999" style="stop-color:#AA8534"/>
					</linearGradient>
					<path style="fill:url(#SVGID_00000100342634545708753760000015752872828351052176_);" d="M539.71,293.61
						c4.36,0,12.84,0,19.19,4.95c4.59,3.53,7.3,9.66,7.3,16.25c0,10.13-6.71,14.25-8.83,15.43c5.18,0.82,8.24,3.06,10.24,4.95
						c4.71,4.47,5.65,10.6,5.65,14.72c0,4.59-1.3,11.07-6.71,15.9c-5.89,5.18-13.07,6.36-19.9,6.36h-26.38v-78.54H539.71z
						 M535.59,326.23h4.36c2.36,0,11.89-0.24,11.89-10.24c0-7.18-5.53-9.89-11.78-9.89h-4.48V326.23z M535.59,359.68h6.59
						c2.83,0,7.07-0.12,10.48-2.12c3.77-2.24,4.83-6.01,4.83-9.07c0-2.47-0.82-6.71-5.77-8.95c-3.3-1.53-7.18-1.53-10.48-1.53h-5.65
						V359.68z"/>
					
						<linearGradient id="SVGID_00000114766008812860599780000012496145516879090074_" gradientUnits="userSpaceOnUse" x1="649.1094" y1="-863.5582" x2="649.1094" y2="451.7544">
						<stop  offset="5.931120e-03" style="stop-color:#AA8546"/>
						<stop  offset="0.501" style="stop-color:#FFE893"/>
						<stop  offset="0.6149" style="stop-color:#F0D57E"/>
						<stop  offset="0.8434" style="stop-color:#C8A64F"/>
						<stop  offset="0.999" style="stop-color:#AA8534"/>
					</linearGradient>
					<path style="fill:url(#SVGID_00000114766008812860599780000012496145516879090074_);" d="M691.03,332.95
						c0,23.9-17.19,40.98-41.92,40.98c-24.73,0-41.92-17.07-41.92-40.98c0-23.9,17.19-41.1,41.92-41.1
						C673.84,291.85,691.03,309.04,691.03,332.95z M675.25,332.95c0-15.9-10.83-27.2-26.14-27.2c-15.31,0-26.14,11.3-26.14,27.2
						c0,15.9,10.83,27.08,26.14,27.08C664.42,360.03,675.25,348.84,675.25,332.95z"/>
					
						<linearGradient id="SVGID_00000156551020859171834450000001650104956725372065_" gradientUnits="userSpaceOnUse" x1="756.743" y1="-863.5582" x2="756.743" y2="451.7544">
						<stop  offset="5.931120e-03" style="stop-color:#AA8546"/>
						<stop  offset="0.501" style="stop-color:#FFE893"/>
						<stop  offset="0.6149" style="stop-color:#F0D57E"/>
						<stop  offset="0.8434" style="stop-color:#C8A64F"/>
						<stop  offset="0.999" style="stop-color:#AA8534"/>
					</linearGradient>
					<path style="fill:url(#SVGID_00000156551020859171834450000001650104956725372065_);" d="M748.5,330.71l-23.43-37.09h18.37
						l13.78,24.38l14.48-24.38h18.37l-24.14,37.09l26.85,41.45h-18.37l-17.19-28.73l-18.13,28.73h-18.37L748.5,330.71z"/>
					
						<linearGradient id="SVGID_00000109013018847740591850000014566379406674525853_" gradientUnits="userSpaceOnUse" x1="835.2924" y1="-863.5582" x2="835.2924" y2="451.7544">
						<stop  offset="5.931120e-03" style="stop-color:#AA8546"/>
						<stop  offset="0.501" style="stop-color:#FFE893"/>
						<stop  offset="0.6149" style="stop-color:#F0D57E"/>
						<stop  offset="0.8434" style="stop-color:#C8A64F"/>
						<stop  offset="0.999" style="stop-color:#AA8534"/>
					</linearGradient>
					<path style="fill:url(#SVGID_00000109013018847740591850000014566379406674525853_);" d="M842.95,293.61v78.54h-15.31v-78.54
						H842.95z"/>
					
						<linearGradient id="SVGID_00000009584481810186728540000010549977164281431451_" gradientUnits="userSpaceOnUse" x1="921.2564" y1="-863.5582" x2="921.2564" y2="451.7544">
						<stop  offset="5.931120e-03" style="stop-color:#AA8546"/>
						<stop  offset="0.501" style="stop-color:#FFE893"/>
						<stop  offset="0.6149" style="stop-color:#F0D57E"/>
						<stop  offset="0.8434" style="stop-color:#C8A64F"/>
						<stop  offset="0.999" style="stop-color:#AA8534"/>
					</linearGradient>
					<path style="fill:url(#SVGID_00000009584481810186728540000010549977164281431451_);" d="M884.4,372.16v-78.54H895l47.81,52.4
						v-52.4h15.31v78.54h-10.6l-47.81-52.52v52.52H884.4z"/>
					
						<linearGradient id="SVGID_00000141432848441227323880000010494007278377081729_" gradientUnits="userSpaceOnUse" x1="1035.6039" y1="-863.5582" x2="1035.6039" y2="451.7544">
						<stop  offset="5.931120e-03" style="stop-color:#AA8546"/>
						<stop  offset="0.501" style="stop-color:#FFE893"/>
						<stop  offset="0.6149" style="stop-color:#F0D57E"/>
						<stop  offset="0.8434" style="stop-color:#C8A64F"/>
						<stop  offset="0.999" style="stop-color:#AA8534"/>
					</linearGradient>
					<path style="fill:url(#SVGID_00000141432848441227323880000010494007278377081729_);" d="M1039.37,330.12h36.03v0.94
						c0,5.3-0.71,21.78-11.54,32.5c-8.13,8.12-18.13,10.36-27.91,10.36s-19.9-2-28.5-10.6c-2.71-2.71-11.66-12.6-11.66-30.26
						c0-15.19,6.83-24.49,11.54-29.2c5.89-6.01,15.78-12.01,30.97-12.01c5.89,0,12.13,0.94,18.13,4.12
						c5.06,2.59,10.6,7.3,14.72,14.37l-13.31,7.18c-2.71-5.3-6.71-8.01-9.18-9.3c-3.3-1.65-7.42-2.47-11.07-2.47
						c-6.24,0-13.31,2.24-18.13,6.95c-4.47,4.36-7.89,11.89-7.89,20.73c0,10.48,4.47,16.72,7.77,19.9
						c3.53,3.42,9.07,6.71,17.43,6.71c5.18,0,11.07-1.41,15.43-4.71c3.06-2.36,6.12-6.36,7.42-12.01h-20.25V330.12z"/>
					
						<linearGradient id="SVGID_00000110440385280747019240000013508156618292448897_" gradientUnits="userSpaceOnUse" x1="1240.8596" y1="-863.5582" x2="1240.8596" y2="451.7544">
						<stop  offset="5.931120e-03" style="stop-color:#AA8546"/>
						<stop  offset="0.501" style="stop-color:#FFE893"/>
						<stop  offset="0.6149" style="stop-color:#F0D57E"/>
						<stop  offset="0.8434" style="stop-color:#C8A64F"/>
						<stop  offset="0.999" style="stop-color:#AA8534"/>
					</linearGradient>
					<path style="fill:url(#SVGID_00000110440385280747019240000013508156618292448897_);" d="M1237.92,293.61
						c8.83,0,14.96,0.94,20.73,6.01c6.36,5.65,8.01,13.31,8.01,18.96c0,3.06-0.47,11.54-6.48,17.55c-4.36,4.36-10.83,6.95-19.9,6.95
						h-9.89v29.09h-15.31v-78.54H1237.92z M1230.38,329.88h6.24c2.94,0,6.71,0,10.01-2.47c2.83-2.24,4.24-5.77,4.24-9.19
						c0-4.36-2.12-7.3-4.36-8.95c-3.18-2.24-7.18-2.47-10.83-2.47h-5.3V329.88z"/>
					
						<linearGradient id="SVGID_00000045600125400222086420000018010130452083077516_" gradientUnits="userSpaceOnUse" x1="1330.1227" y1="-863.5582" x2="1330.1227" y2="451.7544">
						<stop  offset="5.931120e-03" style="stop-color:#AA8546"/>
						<stop  offset="0.501" style="stop-color:#FFE893"/>
						<stop  offset="0.6149" style="stop-color:#F0D57E"/>
						<stop  offset="0.8434" style="stop-color:#C8A64F"/>
						<stop  offset="0.999" style="stop-color:#AA8534"/>
					</linearGradient>
					<path style="fill:url(#SVGID_00000045600125400222086420000018010130452083077516_);" d="M1324.24,293.61
						c10.83,0,16.37,2.83,20.02,5.89c6.01,5.06,7.77,11.78,7.77,17.66c0,7.65-3.06,14.37-9.18,18.49c-2,1.41-4.83,2.71-8.6,3.42
						l24.49,33.09h-19.08l-20.96-31.56h-1.88v31.56h-15.31v-78.54H1324.24z M1316.82,329.77h4.36c2.94,0,15.07-0.35,15.07-11.89
						c0-11.66-12.01-11.78-14.84-11.78h-4.59V329.77z"/>
					
						<linearGradient id="SVGID_00000158722255691965494010000002877244319020401322_" gradientUnits="userSpaceOnUse" x1="1430.8077" y1="-863.5582" x2="1430.8077" y2="451.7544">
						<stop  offset="5.931120e-03" style="stop-color:#AA8546"/>
						<stop  offset="0.501" style="stop-color:#FFE893"/>
						<stop  offset="0.6149" style="stop-color:#F0D57E"/>
						<stop  offset="0.8434" style="stop-color:#C8A64F"/>
						<stop  offset="0.999" style="stop-color:#AA8534"/>
					</linearGradient>
					<path style="fill:url(#SVGID_00000158722255691965494010000002877244319020401322_);" d="M1472.73,332.95
						c0,23.9-17.19,40.98-41.92,40.98s-41.92-17.07-41.92-40.98c0-23.9,17.19-41.1,41.92-41.1S1472.73,309.04,1472.73,332.95z
						 M1456.95,332.95c0-15.9-10.83-27.2-26.14-27.2s-26.14,11.3-26.14,27.2c0,15.9,10.83,27.08,26.14,27.08
						S1456.95,348.84,1456.95,332.95z"/>
					
						<linearGradient id="SVGID_00000132077189419886550200000003490555789372280976_" gradientUnits="userSpaceOnUse" x1="1552.6892" y1="-863.5582" x2="1552.6892" y2="451.7544">
						<stop  offset="5.931120e-03" style="stop-color:#AA8546"/>
						<stop  offset="0.501" style="stop-color:#FFE893"/>
						<stop  offset="0.6149" style="stop-color:#F0D57E"/>
						<stop  offset="0.8434" style="stop-color:#C8A64F"/>
						<stop  offset="0.999" style="stop-color:#AA8534"/>
					</linearGradient>
					<path style="fill:url(#SVGID_00000132077189419886550200000003490555789372280976_);" d="M1521.01,293.61h11.07l20.84,49.93
						l21.79-49.93h11.07l13.19,78.54h-15.54l-7.07-48.4l-21.08,48.4h-5.18l-20.14-48.4l-8.01,48.4h-15.54L1521.01,293.61z"/>
					
						<linearGradient id="SVGID_00000182491894445385207670000008694261549265750714_" gradientUnits="userSpaceOnUse" x1="1674.5731" y1="-863.5582" x2="1674.5731" y2="451.7544">
						<stop  offset="5.931120e-03" style="stop-color:#AA8546"/>
						<stop  offset="0.501" style="stop-color:#FFE893"/>
						<stop  offset="0.6149" style="stop-color:#F0D57E"/>
						<stop  offset="0.8434" style="stop-color:#C8A64F"/>
						<stop  offset="0.999" style="stop-color:#AA8534"/>
					</linearGradient>
					<path style="fill:url(#SVGID_00000182491894445385207670000008694261549265750714_);" d="M1716.49,332.95
						c0,23.9-17.19,40.98-41.92,40.98s-41.92-17.07-41.92-40.98c0-23.9,17.19-41.1,41.92-41.1S1716.49,309.04,1716.49,332.95z
						 M1700.72,332.95c0-15.9-10.83-27.2-26.14-27.2s-26.14,11.3-26.14,27.2c0,15.9,10.83,27.08,26.14,27.08
						S1700.72,348.84,1700.72,332.95z"/>
					
						<linearGradient id="SVGID_00000018195941685534109360000005038839472895231901_" gradientUnits="userSpaceOnUse" x1="1771.2562" y1="-863.5582" x2="1771.2562" y2="451.7544">
						<stop  offset="5.931120e-03" style="stop-color:#AA8546"/>
						<stop  offset="0.501" style="stop-color:#FFE893"/>
						<stop  offset="0.6149" style="stop-color:#F0D57E"/>
						<stop  offset="0.8434" style="stop-color:#C8A64F"/>
						<stop  offset="0.999" style="stop-color:#AA8534"/>
					</linearGradient>
					<path style="fill:url(#SVGID_00000018195941685534109360000005038839472895231901_);" d="M1778.91,306.8v65.36h-15.31V306.8
						h-17.66v-13.19h50.64v13.19H1778.91z"/>
					
						<linearGradient id="SVGID_00000181803317865792309870000005623770332987226525_" gradientUnits="userSpaceOnUse" x1="1837.437" y1="-863.5582" x2="1837.437" y2="451.7544">
						<stop  offset="5.931120e-03" style="stop-color:#AA8546"/>
						<stop  offset="0.501" style="stop-color:#FFE893"/>
						<stop  offset="0.6149" style="stop-color:#F0D57E"/>
						<stop  offset="0.8434" style="stop-color:#C8A64F"/>
						<stop  offset="0.999" style="stop-color:#AA8534"/>
					</linearGradient>
					<path style="fill:url(#SVGID_00000181803317865792309870000005623770332987226525_);" d="M1845.09,293.61v78.54h-15.31v-78.54
						H1845.09z"/>
					
						<linearGradient id="SVGID_00000178921230145780631820000002418724185337155461_" gradientUnits="userSpaceOnUse" x1="1924.6971" y1="-863.5582" x2="1924.6971" y2="451.7544">
						<stop  offset="5.931120e-03" style="stop-color:#AA8546"/>
						<stop  offset="0.501" style="stop-color:#FFE893"/>
						<stop  offset="0.6149" style="stop-color:#F0D57E"/>
						<stop  offset="0.8434" style="stop-color:#C8A64F"/>
						<stop  offset="0.999" style="stop-color:#AA8534"/>
					</linearGradient>
					<path style="fill:url(#SVGID_00000178921230145780631820000002418724185337155461_);" d="M1966.62,332.95
						c0,23.9-17.19,40.98-41.92,40.98s-41.92-17.07-41.92-40.98c0-23.9,17.19-41.1,41.92-41.1S1966.62,309.04,1966.62,332.95z
						 M1950.84,332.95c0-15.9-10.83-27.2-26.14-27.2s-26.14,11.3-26.14,27.2c0,15.9,10.83,27.08,26.14,27.08
						S1950.84,348.84,1950.84,332.95z"/>
					
						<linearGradient id="SVGID_00000008831557487228184980000014160919841482270861_" gradientUnits="userSpaceOnUse" x1="2041.162" y1="-863.5582" x2="2041.162" y2="451.7544">
						<stop  offset="5.931120e-03" style="stop-color:#AA8546"/>
						<stop  offset="0.501" style="stop-color:#FFE893"/>
						<stop  offset="0.6149" style="stop-color:#F0D57E"/>
						<stop  offset="0.8434" style="stop-color:#C8A64F"/>
						<stop  offset="0.999" style="stop-color:#AA8534"/>
					</linearGradient>
					<path style="fill:url(#SVGID_00000008831557487228184980000014160919841482270861_);" d="M2004.3,372.16v-78.54h10.6
						l47.81,52.4v-52.4h15.31v78.54h-10.6l-47.81-52.52v52.52H2004.3z"/>
				</g>
			</g>
			<g>
				
					<linearGradient id="SVGID_00000103972763715268701330000014337142552109506705_" gradientUnits="userSpaceOnUse" x1="296.3536" y1="-122.7593" x2="245.8527" y2="456.0585">
					<stop  offset="5.931120e-03" style="stop-color:#AA8546"/>
					<stop  offset="0.501" style="stop-color:#FFE893"/>
					<stop  offset="0.6149" style="stop-color:#F0D57E"/>
					<stop  offset="0.8434" style="stop-color:#C8A64F"/>
					<stop  offset="0.999" style="stop-color:#AA8534"/>
				</linearGradient>
				<path style="fill:url(#SVGID_00000103972763715268701330000014337142552109506705_);" d="M335.98,409.07l60.76-60.76v-82.4
					l-129.51-52.32l17.62-33.98l27.76-50.05h83.71V87.42l-109.63-0.1l-60.17,108.5l-21.94,39.56L108.5,408.64h2.58l-0.25,0.43
					H335.98z M213.07,309.07l31.59-56.96l2.29-4.13l111.19,40.31v41.35l-39.82,41.88H179.23L213.07,309.07z"/>
				
					<linearGradient id="SVGID_00000081625304951826937720000004313270083624159121_" gradientUnits="userSpaceOnUse" x1="216.1676" y1="-129.7554" x2="165.6667" y2="449.0624">
					<stop  offset="5.931120e-03" style="stop-color:#AA8546"/>
					<stop  offset="0.501" style="stop-color:#FFE893"/>
					<stop  offset="0.6149" style="stop-color:#F0D57E"/>
					<stop  offset="0.8434" style="stop-color:#C8A64F"/>
					<stop  offset="0.999" style="stop-color:#AA8534"/>
				</linearGradient>
				
					<rect x="7.92" y="8.13" style="fill:url(#SVGID_00000081625304951826937720000004313270083624159121_);" width="388.82" height="41.38"/>
				
					<linearGradient id="SVGID_00000127040454668370880230000003642261404107722896_" gradientUnits="userSpaceOnUse" x1="143.3733" y1="-136.1066" x2="92.8724" y2="442.7112">
					<stop  offset="5.931120e-03" style="stop-color:#AA8546"/>
					<stop  offset="0.501" style="stop-color:#FFE893"/>
					<stop  offset="0.6149" style="stop-color:#F0D57E"/>
					<stop  offset="0.8434" style="stop-color:#C8A64F"/>
					<stop  offset="0.999" style="stop-color:#AA8534"/>
				</linearGradient>
				<polygon style="fill:url(#SVGID_00000127040454668370880230000003642261404107722896_);" points="54.57,133.97 164.62,133.97 
					54.92,331.77 12.29,408.64 61.64,408.64 239.84,87.32 7.92,87.32 7.92,353.38 54.57,277.91 				"/>
			</g>
		</g>
	</g>
</g>
</svg>
